<?xml version="1.0" encoding="UTF-8"?>
<svg xmlns="http://www.w3.org/2000/svg" viewBox="0 0 1476.93 488.21">
  <defs>
    <style>
      .cls-1 {
        fill: #f5b040;
      }

      .cls-2 {
        fill: #b47032;
      }

      .cls-3 {
        fill: #b47131;
      }

      .cls-4 {
        fill: #434343;
      }
    </style>
  </defs>
  <g id="Layer_1" data-name="Layer 1">
    <path class="cls-1" d="M422.38,450.46c-3.06-18.43-12.52-33.87-26.01-46.83-14.41-13.85-31.58-23.05-49.66-32.1l-123.9-52.03-141.67-59.62c-17.35-8.17-33.85-16.38-47.88-29.17C12.54,212.15.44,186.9,0,158.99L.24,41.59c3.26,17.59,11.07,32.21,23.87,44.37,15.17,14.29,32.73,24.25,51.75,33.13l84.33,35.43,184.42,76.23c17.8,9.05,34.84,18.3,48.51,32.5,18.78,18.47,29.45,41.95,29.35,68.48l-.1,118.72Z"/>
    <path class="cls-1" d="M401.68,153.47c-16.43,3.95-32.88,1.89-50.09-1.72-38.16-9.15-74.87-22.96-110.72-38.82-11.44-6.24-22.3-12.31-30.26-22.17-7.54-8.6-6.09-19.39,2.28-26.82L383.92,5.38c18.55-4.43,36.3,6.72,38.52,25.7l.04,71.28c-.25,19.54-7.3,37.19-20.8,51.12Z"/>
    <path class="cls-1" d="M204.47,430.45l-168.33,57.13c-17.81,2.71-33.75-6.3-36.08-24.2L0,383.24c1.29-19.61,10.32-37.02,24.89-49.44,14.73-.92,28.71,1.75,43.44,5.4,36.09,10.48,70.91,24.22,104.27,41.35,12.57,7.31,24.37,14.65,32.17,26.6,5.49,7.51,5.61,16.38-.3,23.31Z"/>
    <path class="cls-2" d="M204.47,430.45c5.91-6.92,5.79-15.79.3-23.31-7.8-11.95-19.59-19.29-32.17-26.6-33.35-17.13-68.18-30.86-104.27-41.35-14.73-3.65-28.71-6.31-43.44-5.4,13.26-12.23,31.06-18.8,48.81-22.68l236.51,82.74-105.75,36.6Z"/>
    <path class="cls-3" d="M212.9,63.94c-8.37,7.43-9.82,18.22-2.28,26.82,7.95,9.86,18.81,15.93,30.26,22.17,35.85,15.86,72.56,29.68,110.72,38.82,17.2,3.61,33.65,5.68,50.09,1.72-13.12,13.95-30.93,21.88-49.93,26.24L112.89,98.13l100.01-34.19Z"/>
  </g>
  <g id="Layer_3" data-name="Layer 3">
    <g>
      <polygon class="cls-1" points="1080.08 229.05 1031.43 229.33 933.39 83.62 932.76 229.47 884.45 229.5 884.6 4.27 933.07 4.44 1031.08 150.58 1031.74 4.28 1080.03 4.26 1080.08 229.05"/>
      <path class="cls-1" d="M662.98,227.04c-25.79,9.74-53.55,8.34-78.39-.58-28.22-10.13-45.85-35.18-45.91-65.17l51.4-.04c1.22,21.81,19.43,33.6,39.83,31.39,11.19-1.21,20.84-6.74,23.61-16.11,3.29-11.09-.54-21.8-9.92-28.63-30.9-22.5-98.59-19.18-100.68-79.86-.89-25.93,12.26-48.83,36.79-59.41,26.94-11.62,58.97-11.76,85.51,1.04,22.26,10.74,35.53,32.01,35.94,56.78l-51.71.11c-2-17.28-15.64-26.56-31.75-25.74-10.6.54-19.57,5.77-22.51,14.64-3.44,10.4.82,20.87,10.32,27.05,28.18,18.35,95.43,19.66,100.7,74.87,2.9,30.33-13.13,58.3-43.22,69.66Z"/>
      <path class="cls-4" d="M668.71,478.83c-28.12,13.23-60.78,11.72-88.58.14-26.01-10.84-41.21-35.27-41.5-63.23l51.45-.08c1.2,21.78,19.45,33.62,39.83,31.34,11.42-1.28,21.05-6.46,24.06-17.51,2.59-9.52-1.08-20.48-10.41-27.22-31.16-22.52-98.59-19.27-100.66-79.82-.89-25.94,12.25-48.84,36.78-59.43,26.94-11.63,58.98-11.79,85.53,1.04,22.24,10.75,35.54,32.03,35.94,56.79l-51.72.08c-2.01-17.26-15.63-26.58-31.76-25.77-10.57.53-19.6,5.82-22.52,14.67-3.44,10.45.88,20.88,10.36,27.04,28.76,18.66,97.15,19.85,100.82,76.89,1.75,27.24-11.22,52.63-37.63,65.05Z"/>
      <polygon class="cls-1" points="815.59 229.01 767.25 229.47 767.25 43.4 701.93 43.09 702.02 4.05 881.35 4.41 881.07 43.12 815.54 43.39 815.59 229.01"/>
      <path class="cls-4" d="M1222.02,258.43l82.15,225.41-51.23.22-16.93-49.19-83.83-.09-17.26,49.18-191.89.07.04-225.26,48.4-.04.03,187.85,96.85.06,1.17,22.88,76.97-210.8,55.52-.29ZM1194.09,314.21l-29.04,82.91,57.71-.65-28.66-82.26Z"/>
      <path class="cls-4" d="M925.74,417.58c-15.7,44.4-54.98,68.85-100.31,70.45-50.3,1.78-94.5-26.32-109.89-74.87-8.62-27.2-8.64-56.58-.01-83.76,15.43-48.6,59.6-76.65,109.91-74.94,45.39,1.54,84.47,26.37,100.07,69.83,10.63,29.62,11.1,62.52.22,93.29ZM876.02,411.06c11.34-24.15,11.4-53.73.67-78.2-9.96-22.71-31.5-34.48-55.57-34.41-25.38.08-47.28,13.7-56.36,37.85-8.37,22.27-8.46,47.66.02,69.93,9.13,23.97,30.74,38.44,57.42,38.09,24.09-.31,43.87-12.11,53.81-33.27Z"/>
      <path class="cls-4" d="M1476.93,483.81l-55.18-.09-39.47-86.2-28.12.12-.09,86.25-48.35-.09v-225.24s96.24.3,96.24.3c19.77.06,38.02,7.01,52.51,19.6,14.95,14.35,21.55,33.88,20.31,54.71-1.58,26.62-17.23,48.98-43.33,57.92l45.48,92.72ZM1395.56,299.07l-41.49-.08.09,63.22,43.04-.11c17.33-.05,28.62-13.95,28.47-32.14-.15-18.63-12.56-30.85-30.11-30.89Z"/>
    </g>
  </g>
</svg>