<?xml version="1.0" encoding="UTF-8"?>
<svg id="Layer_1" data-name="Layer 1" xmlns="http://www.w3.org/2000/svg" viewBox="0 0 1437 1586.45">
  <defs>
    <style>
      .cls-1 {
        fill: #f5b040;
      }

      .cls-2 {
        fill: #b47032;
      }

      .cls-3 {
        fill: #b47131;
      }
    </style>
  </defs>
  <g id="Layer_1-2" data-name="Layer 1">
    <g>
      <path class="cls-1" d="M1385.51,1463.15c-10.05-60.46-41.07-111.09-85.31-153.61-47.26-45.44-103.58-75.62-162.89-105.3l-406.44-170.69-464.72-195.57c-56.91-26.81-111.04-53.72-157.06-95.68C41.15,681.45,1.46,598.6,0,507.07L.79,121.95c10.68,57.69,36.3,105.66,78.29,145.56,49.75,46.89,107.35,79.56,169.77,108.68l276.64,116.23,604.96,250.06c58.39,29.67,114.29,60.02,159.12,106.61,61.59,60.6,96.59,137.59,96.27,224.63l-.34,389.44h0Z"/>
      <path class="cls-1" d="M1317.63,488.95c-53.9,12.97-107.86,6.19-164.3-5.66-125.18-30-245.59-75.32-363.2-127.34-37.54-20.47-73.16-40.38-99.25-72.71-24.72-28.2-19.97-63.61,7.48-87.98L1259.34,3.17c60.86-14.52,119.08,22.04,126.36,84.3l.14,233.81c-.83,64.1-23.95,122-68.22,167.67h.01Z"/>
      <path class="cls-1" d="M670.73,1397.5l-552.17,187.39c-58.41,8.88-110.72-20.68-118.34-79.4L.03,1242.63c4.22-64.34,33.85-121.44,81.66-162.19,48.32-3,94.17,5.74,142.49,17.71,118.38,34.39,232.62,79.43,342.03,135.64,41.24,23.97,79.94,48.05,105.51,87.26,18.02,24.64,18.41,53.74-.98,76.45h-.01Z"/>
      <path class="cls-2" d="M670.73,1397.5c19.39-22.71,19.01-51.81.98-76.45-25.57-39.21-64.27-63.29-105.51-87.26-109.41-56.2-223.65-101.24-342.03-135.64-48.31-11.96-94.16-20.71-142.49-17.71,43.51-40.13,101.87-61.68,160.11-74.4l775.82,271.4-346.89,120.06h.01Z"/>
      <path class="cls-3" d="M698.37,195.26c-27.46,24.36-32.2,59.77-7.48,87.98,26.09,32.33,61.71,52.24,99.25,72.71,117.61,52.02,238.02,97.34,363.2,127.34,56.43,11.85,110.4,18.62,164.3,5.66-43.03,45.77-101.45,71.77-163.77,86.06L370.33,307.42l328.05-112.15h-.01Z"/>
    </g>
  </g>
</svg>